<svg aria-roledescription="er" viewBox="0 0 472.051025390625 320" style="max-width: 472.051px; background-color: white;" xmlns:xlink="http://www.w3.org/1999/xlink" xmlns="http://www.w3.org/2000/svg" width="100%" id="mermaid-0"><style>#mermaid-0{font-family:"trebuchet ms",verdana,arial,sans-serif;font-size:16px;fill:#000000;}#mermaid-0 .error-icon{fill:#552222;}#mermaid-0 .error-text{fill:#552222;stroke:#552222;}#mermaid-0 .edge-thickness-normal{stroke-width:2px;}#mermaid-0 .edge-thickness-thick{stroke-width:3.5px;}#mermaid-0 .edge-pattern-solid{stroke-dasharray:0;}#mermaid-0 .edge-pattern-dashed{stroke-dasharray:3;}#mermaid-0 .edge-pattern-dotted{stroke-dasharray:2;}#mermaid-0 .marker{fill:#000000;stroke:#000000;}#mermaid-0 .marker.cross{stroke:#000000;}#mermaid-0 svg{font-family:"trebuchet ms",verdana,arial,sans-serif;font-size:16px;}#mermaid-0 .entityBox{fill:#cde498;stroke:#13540c;}#mermaid-0 .attributeBoxOdd{fill:#ffffff;stroke:#13540c;}#mermaid-0 .attributeBoxEven{fill:#f2f2f2;stroke:#13540c;}#mermaid-0 .relationshipLabelBox{fill:hsl(78.1578947368, 58.4615384615%, 84.5098039216%);opacity:0.7;background-color:hsl(78.1578947368, 58.4615384615%, 84.5098039216%);}#mermaid-0 .relationshipLabelBox rect{opacity:0.5;}#mermaid-0 .relationshipLine{stroke:#000000;}#mermaid-0 .entityTitleText{text-anchor:middle;font-size:18px;fill:#000000;}#mermaid-0 :root{--mermaid-font-family:"trebuchet ms",verdana,arial,sans-serif;}</style><g/><defs><marker orient="auto" markerHeight="18" markerWidth="18" refY="9" refX="0" id="ONLY_ONE_START"><path d="M9,0 L9,18 M15,0 L15,18" fill="none" stroke="gray"/></marker></defs><defs><marker orient="auto" markerHeight="18" markerWidth="18" refY="9" refX="18" id="ONLY_ONE_END"><path d="M3,0 L3,18 M9,0 L9,18" fill="none" stroke="gray"/></marker></defs><defs><marker orient="auto" markerHeight="18" markerWidth="30" refY="9" refX="0" id="ZERO_OR_ONE_START"><circle r="6" cy="9" cx="21" fill="white" stroke="gray"/><path d="M9,0 L9,18" fill="none" stroke="gray"/></marker></defs><defs><marker orient="auto" markerHeight="18" markerWidth="30" refY="9" refX="30" id="ZERO_OR_ONE_END"><circle r="6" cy="9" cx="9" fill="white" stroke="gray"/><path d="M21,0 L21,18" fill="none" stroke="gray"/></marker></defs><defs><marker orient="auto" markerHeight="36" markerWidth="45" refY="18" refX="18" id="ONE_OR_MORE_START"><path d="M0,18 Q 18,0 36,18 Q 18,36 0,18 M42,9 L42,27" fill="none" stroke="gray"/></marker></defs><defs><marker orient="auto" markerHeight="36" markerWidth="45" refY="18" refX="27" id="ONE_OR_MORE_END"><path d="M3,9 L3,27 M9,18 Q27,0 45,18 Q27,36 9,18" fill="none" stroke="gray"/></marker></defs><defs><marker orient="auto" markerHeight="36" markerWidth="57" refY="18" refX="18" id="ZERO_OR_MORE_START"><circle r="6" cy="18" cx="48" fill="white" stroke="gray"/><path d="M0,18 Q18,0 36,18 Q18,36 0,18" fill="none" stroke="gray"/></marker></defs><defs><marker orient="auto" markerHeight="36" markerWidth="57" refY="18" refX="39" id="ZERO_OR_MORE_END"><circle r="6" cy="18" cx="9" fill="white" stroke="gray"/><path d="M21,18 Q39,0 57,18 Q39,36 21,18" fill="none" stroke="gray"/></marker></defs><path style="stroke: gray; fill: none;" marker-start="url(#ZERO_OR_MORE_START)" marker-end="url(#ONLY_ONE_END)" d="M111.82926137823807,88L105.51347190455385,100C99.19768243086965,112,86.56610348350124,136,80.25031400981702,158.16666666666666C73.93452453613281,180.33333333333334,73.93452453613281,200.66666666666666,73.93452453613281,210.83333333333334L73.93452453613281,221" class="er relationshipLine"/><path style="stroke: gray; fill: none;" marker-start="url(#ZERO_OR_MORE_START)" marker-end="url(#ONLY_ONE_END)" d="M150.90426804391961,88L164.97543856972143,100C179.04660909552322,112,207.18895014712686,136,230.5209313911304,156.33333333333334C253.85291263513398,176.66666666666666,272.3745340715375,193.33333333333334,281.63534478973924,201.66666666666666L290.896155507941,210" class="er relationshipLine"/><path style="stroke: gray; fill: none;" marker-start="url(#ZERO_OR_MORE_START)" marker-end="url(#ONLY_ONE_END)" d="M390.90453338623047,110L390.90453338623047,118.33333333333333C390.90453338623047,126.66666666666667,390.90453338623047,143.33333333333334,386.51856847394976,160C382.1326035616691,176.66666666666666,373.3606737371077,193.33333333333334,368.9747088248269,201.66666666666666L364.58874391254625,210" class="er relationshipLine"/><g transform="translate(272.04552459716797,210 )" id="entity-habits-e8824809-1209-4da7-9597-a4b93900ae4d"><rect height="90" width="137.718017578125" y="0" x="0" class="er entityBox"/><text style="dominant-baseline: middle; text-anchor: middle; font-size: 12px;" transform="translate(68.8590087890625,12)" y="0" x="0" id="text-entity-habits-e8824809-1209-4da7-9597-a4b93900ae4d" class="er entityLabel">habits</text><rect height="22" width="54.095550537109375" y="24" x="0" class="er attributeBoxOdd"/><text style="dominant-baseline: middle; font-size: 10.2px;" transform="translate(5,35)" y="0" x="0" id="text-entity-habits-e8824809-1209-4da7-9597-a4b93900ae4d-attr-1-type" class="er entityLabel">String</text><rect height="22" width="60.934783935546875" y="24" x="54.095550537109375" class="er attributeBoxOdd"/><text style="dominant-baseline: middle; font-size: 10.2px;" transform="translate(59.095550537109375,35)" y="0" x="0" id="text-entity-habits-e8824809-1209-4da7-9597-a4b93900ae4d-attr-1-name" class="er entityLabel">id</text><rect height="22" width="22.68768310546875" y="24" x="115.03033447265625" class="er attributeBoxOdd"/><text style="dominant-baseline: middle; font-size: 10.2px;" transform="translate(120.03033447265625,35)" y="0" x="0" id="text-entity-habits-e8824809-1209-4da7-9597-a4b93900ae4d-attr-1-key" class="er entityLabel">PK</text><rect height="22" width="54.095550537109375" y="46" x="0" class="er attributeBoxEven"/><text style="dominant-baseline: middle; font-size: 10.2px;" transform="translate(5,57)" y="0" x="0" id="text-entity-habits-e8824809-1209-4da7-9597-a4b93900ae4d-attr-2-type" class="er entityLabel">String</text><rect height="22" width="60.934783935546875" y="46" x="54.095550537109375" class="er attributeBoxEven"/><text style="dominant-baseline: middle; font-size: 10.2px;" transform="translate(59.095550537109375,57)" y="0" x="0" id="text-entity-habits-e8824809-1209-4da7-9597-a4b93900ae4d-attr-2-name" class="er entityLabel">title</text><rect height="22" width="22.68768310546875" y="46" x="115.03033447265625" class="er attributeBoxEven"/><text style="dominant-baseline: middle; font-size: 10.2px;" transform="translate(120.03033447265625,57)" y="0" x="0" id="text-entity-habits-e8824809-1209-4da7-9597-a4b93900ae4d-attr-2-key" class="er entityLabel"/><rect height="22" width="54.095550537109375" y="68" x="0" class="er attributeBoxOdd"/><text style="dominant-baseline: middle; font-size: 10.2px;" transform="translate(5,79)" y="0" x="0" id="text-entity-habits-e8824809-1209-4da7-9597-a4b93900ae4d-attr-3-type" class="er entityLabel">DateTime</text><rect height="22" width="60.934783935546875" y="68" x="54.095550537109375" class="er attributeBoxOdd"/><text style="dominant-baseline: middle; font-size: 10.2px;" transform="translate(59.095550537109375,79)" y="0" x="0" id="text-entity-habits-e8824809-1209-4da7-9597-a4b93900ae4d-attr-3-name" class="er entityLabel">created_at</text><rect height="22" width="22.68768310546875" y="68" x="115.03033447265625" class="er attributeBoxOdd"/><text style="dominant-baseline: middle; font-size: 10.2px;" transform="translate(120.03033447265625,79)" y="0" x="0" id="text-entity-habits-e8824809-1209-4da7-9597-a4b93900ae4d-attr-3-key" class="er entityLabel"/></g><g transform="translate(20,221 )" id="entity-days-3c3b3172-daed-4d05-b8fb-b4ca041993f8"><rect height="68" width="107.86904907226562" y="0" x="0" class="er entityBox"/><text style="dominant-baseline: middle; text-anchor: middle; font-size: 12px;" transform="translate(53.93452453613281,12)" y="0" x="0" id="text-entity-days-3c3b3172-daed-4d05-b8fb-b4ca041993f8" class="er entityLabel">days</text><rect height="22" width="54.095550537109375" y="24" x="0" class="er attributeBoxOdd"/><text style="dominant-baseline: middle; font-size: 10.2px;" transform="translate(5,35)" y="0" x="0" id="text-entity-days-3c3b3172-daed-4d05-b8fb-b4ca041993f8-attr-1-type" class="er entityLabel">String</text><rect height="22" width="31.0858154296875" y="24" x="54.095550537109375" class="er attributeBoxOdd"/><text style="dominant-baseline: middle; font-size: 10.2px;" transform="translate(59.095550537109375,35)" y="0" x="0" id="text-entity-days-3c3b3172-daed-4d05-b8fb-b4ca041993f8-attr-1-name" class="er entityLabel">id</text><rect height="22" width="22.68768310546875" y="24" x="85.18136596679688" class="er attributeBoxOdd"/><text style="dominant-baseline: middle; font-size: 10.2px;" transform="translate(90.18136596679688,35)" y="0" x="0" id="text-entity-days-3c3b3172-daed-4d05-b8fb-b4ca041993f8-attr-1-key" class="er entityLabel">PK</text><rect height="22" width="54.095550537109375" y="46" x="0" class="er attributeBoxEven"/><text style="dominant-baseline: middle; font-size: 10.2px;" transform="translate(5,57)" y="0" x="0" id="text-entity-days-3c3b3172-daed-4d05-b8fb-b4ca041993f8-attr-2-type" class="er entityLabel">DateTime</text><rect height="22" width="31.0858154296875" y="46" x="54.095550537109375" class="er attributeBoxEven"/><text style="dominant-baseline: middle; font-size: 10.2px;" transform="translate(59.095550537109375,57)" y="0" x="0" id="text-entity-days-3c3b3172-daed-4d05-b8fb-b4ca041993f8-attr-2-name" class="er entityLabel">date</text><rect height="22" width="22.68768310546875" y="46" x="85.18136596679688" class="er attributeBoxEven"/><text style="dominant-baseline: middle; font-size: 10.2px;" transform="translate(90.18136596679688,57)" y="0" x="0" id="text-entity-days-3c3b3172-daed-4d05-b8fb-b4ca041993f8-attr-2-key" class="er entityLabel"/></g><g transform="translate(73.93452453613281,42 )" id="entity-dayhabits-969604bf-221f-4cd7-9bf7-04639497e127"><rect height="46" width="100" y="0" x="0" class="er entityBox"/><text style="dominant-baseline: middle; text-anchor: middle; font-size: 12px;" transform="translate(50,12)" y="0" x="0" id="text-entity-dayhabits-969604bf-221f-4cd7-9bf7-04639497e127" class="er entityLabel">day_habits</text><rect height="22" width="44.39861551920573" y="24" x="0" class="er attributeBoxOdd"/><text style="dominant-baseline: middle; font-size: 10.2px;" transform="translate(5,35)" y="0" x="0" id="text-entity-dayhabits-969604bf-221f-4cd7-9bf7-04639497e127-attr-1-type" class="er entityLabel">String</text><rect height="22" width="25.911142985026043" y="24" x="44.39861551920573" class="er attributeBoxOdd"/><text style="dominant-baseline: middle; font-size: 10.2px;" transform="translate(49.39861551920573,35)" y="0" x="0" id="text-entity-dayhabits-969604bf-221f-4cd7-9bf7-04639497e127-attr-1-name" class="er entityLabel">id</text><rect height="22" width="29.69024149576823" y="24" x="70.30975850423177" class="er attributeBoxOdd"/><text style="dominant-baseline: middle; font-size: 10.2px;" transform="translate(75.30975850423177,35)" y="0" x="0" id="text-entity-dayhabits-969604bf-221f-4cd7-9bf7-04639497e127-attr-1-key" class="er entityLabel">PK</text></g><g transform="translate(329.75804901123047,20 )" id="entity-habitweekdays-139e5c57-ee0a-4c44-b79c-79edcf8d884d"><rect height="90" width="122.29296875" y="0" x="0" class="er entityBox"/><text style="dominant-baseline: middle; text-anchor: middle; font-size: 12px;" transform="translate(61.146484375,12)" y="0" x="0" id="text-entity-habitweekdays-139e5c57-ee0a-4c44-b79c-79edcf8d884d" class="er entityLabel">habit_week_days</text><rect height="22" width="39.0484364827474" y="24" x="0" class="er attributeBoxOdd"/><text style="dominant-baseline: middle; font-size: 10.2px;" transform="translate(5,35)" y="0" x="0" id="text-entity-habitweekdays-139e5c57-ee0a-4c44-b79c-79edcf8d884d-attr-1-type" class="er entityLabel">String</text><rect height="22" width="58.90446980794271" y="24" x="39.0484364827474" class="er attributeBoxOdd"/><text style="dominant-baseline: middle; font-size: 10.2px;" transform="translate(44.0484364827474,35)" y="0" x="0" id="text-entity-habitweekdays-139e5c57-ee0a-4c44-b79c-79edcf8d884d-attr-1-name" class="er entityLabel">id</text><rect height="22" width="24.340062459309895" y="24" x="97.95290629069011" class="er attributeBoxOdd"/><text style="dominant-baseline: middle; font-size: 10.2px;" transform="translate(102.95290629069011,35)" y="0" x="0" id="text-entity-habitweekdays-139e5c57-ee0a-4c44-b79c-79edcf8d884d-attr-1-key" class="er entityLabel">PK</text><rect height="22" width="39.0484364827474" y="46" x="0" class="er attributeBoxEven"/><text style="dominant-baseline: middle; font-size: 10.2px;" transform="translate(5,57)" y="0" x="0" id="text-entity-habitweekdays-139e5c57-ee0a-4c44-b79c-79edcf8d884d-attr-2-type" class="er entityLabel">Int</text><rect height="22" width="58.90446980794271" y="46" x="39.0484364827474" class="er attributeBoxEven"/><text style="dominant-baseline: middle; font-size: 10.2px;" transform="translate(44.0484364827474,57)" y="0" x="0" id="text-entity-habitweekdays-139e5c57-ee0a-4c44-b79c-79edcf8d884d-attr-2-name" class="er entityLabel">week_day</text><rect height="22" width="24.340062459309895" y="46" x="97.95290629069011" class="er attributeBoxEven"/><text style="dominant-baseline: middle; font-size: 10.2px;" transform="translate(102.95290629069011,57)" y="0" x="0" id="text-entity-habitweekdays-139e5c57-ee0a-4c44-b79c-79edcf8d884d-attr-2-key" class="er entityLabel"/><rect height="22" width="39.0484364827474" y="68" x="0" class="er attributeBoxOdd"/><text style="dominant-baseline: middle; font-size: 10.2px;" transform="translate(5,79)" y="0" x="0" id="text-entity-habitweekdays-139e5c57-ee0a-4c44-b79c-79edcf8d884d-attr-3-type" class="er entityLabel">String</text><rect height="22" width="58.90446980794271" y="68" x="39.0484364827474" class="er attributeBoxOdd"/><text style="dominant-baseline: middle; font-size: 10.2px;" transform="translate(44.0484364827474,79)" y="0" x="0" id="text-entity-habitweekdays-139e5c57-ee0a-4c44-b79c-79edcf8d884d-attr-3-name" class="er entityLabel">habitId</text><rect height="22" width="24.340062459309895" y="68" x="97.95290629069011" class="er attributeBoxOdd"/><text style="dominant-baseline: middle; font-size: 10.2px;" transform="translate(102.95290629069011,79)" y="0" x="0" id="text-entity-habitweekdays-139e5c57-ee0a-4c44-b79c-79edcf8d884d-attr-3-key" class="er entityLabel"/></g><rect height="14" width="19.990234375" y="144.62586975097656" x="72.27703094482422" class="er relationshipLabelBox"/><text style="text-anchor: middle; dominant-baseline: middle; font-size: 12px;" y="151.62586975097656" x="82.27214813232422" id="rel1" class="er relationshipLabel">day</text><rect height="14" width="27.96875" y="141.41688537597656" x="207.4249725341797" class="er relationshipLabelBox"/><text style="text-anchor: middle; dominant-baseline: middle; font-size: 12px;" y="148.41688537597656" x="221.4093475341797" id="rel2" class="er relationshipLabel">habit</text><rect height="14" width="27.96875" y="155.108642578125" x="371.9561767578125" class="er relationshipLabelBox"/><text style="text-anchor: middle; dominant-baseline: middle; font-size: 12px;" y="162.108642578125" x="385.9405517578125" id="rel3" class="er relationshipLabel">habit</text></svg>